<svg aria-hidden="true" style="position: absolute; width: 0; height: 0; overflow: hidden;" version="1.1" xmlns="http://www.w3.org/2000/svg" xmlns:xlink="http://www.w3.org/1999/xlink">
	<defs>
	    <symbol id="facebook-icon" viewBox="0 0 32 32">
			<title>Facebook</title>
			<path d="M23.612 0.782l-3.951-0.009c-4.435 0-7.301 2.943-7.301 7.493v3.459h-3.972c-0.343 0-0.62 0.276-0.62 0.621v5.007c0 0.343 0.279 0.617 0.62 0.617h3.972v12.634c0 0.343 0.278 0.622 0.621 0.622h5.18c0.342 0 0.617-0.28 0.617-0.622v-12.634h4.64c0.347 0 0.623-0.275 0.623-0.617v-5.007c0-0.165-0.060-0.321-0.183-0.438-0.115-0.118-0.269-0.183-0.435-0.183h-4.646v-2.932c0-1.405 0.338-2.121 2.171-2.121h2.657c0.347 0 0.623-0.279 0.623-0.623v-4.646c0.004-0.342-0.274-0.62-0.616-0.62z"></path>
		</symbol>
		<symbol id="icon-twitter" viewBox="0 0 32 32">
			<title>Twitter</title>
			<path d="M32 7.075c-1.175 0.525-2.444 0.875-3.769 1.031 1.356-0.813 2.394-2.1 2.887-3.631-1.269 0.75-2.675 1.3-4.169 1.594-1.2-1.275-2.906-2.069-4.794-2.069-3.625 0-6.563 2.938-6.563 6.563 0 0.512 0.056 1.012 0.169 1.494-5.456-0.275-10.294-2.888-13.531-6.862-0.563 0.969-0.887 2.1-0.887 3.3 0 2.275 1.156 4.287 2.919 5.463-1.075-0.031-2.087-0.331-2.975-0.819 0 0.025 0 0.056 0 0.081 0 3.181 2.263 5.838 5.269 6.437-0.55 0.15-1.131 0.231-1.731 0.231-0.425 0-0.831-0.044-1.237-0.119 0.838 2.606 3.263 4.506 6.131 4.563-2.25 1.762-5.075 2.813-8.156 2.813-0.531 0-1.050-0.031-1.569-0.094 2.913 1.869 6.362 2.95 10.069 2.95 12.075 0 18.681-10.006 18.681-18.681 0-0.287-0.006-0.569-0.019-0.85 1.281-0.919 2.394-2.075 3.275-3.394z"></path>
		</symbol>
		<symbol id="linkedin-icon" viewBox="0 0 32 32">
			<title>Linkedin</title>
			<path d="M30.066 19.040v10.401h-6.030v-9.705c0-2.437-0.873-4.101-3.054-4.101-1.667 0-2.659 1.121-3.095 2.207-0.159 0.388-0.2 0.928-0.2 1.469v10.13h-6.031c0 0 0.081-16.436 0-18.139h6.031v2.572c-0.013 0.019-0.027 0.040-0.040 0.059h0.040v-0.059c0.801-1.235 2.232-2.998 5.436-2.998 3.968 0 6.943 2.592 6.943 8.164zM5.345 2.559c-2.062 0-3.412 1.353-3.412 3.133 0 1.74 1.309 3.135 3.333 3.135h0.041c2.103 0 3.411-1.395 3.411-3.135-0.040-1.782-1.308-3.133-3.373-3.133zM2.291 29.441h6.030v-18.139h-6.030v18.139z"></path>
		</symbol>
		<symbol id="youtube-icon" viewBox="0 0 32 32">
			<title>Youtube</title>
			<path d="M29.699 7.692c-0.812-1.445-1.693-1.711-3.488-1.812-1.793-0.122-6.301-0.172-10.207-0.172-3.914 0-8.424 0.050-10.214 0.17-1.791 0.102-2.674 0.366-3.493 1.814-0.836 1.443-1.267 3.927-1.267 8.302 0 0.005 0 0.006 0 0.006 0 0.004 0 0.006 0 0.006v0.003c0 4.357 0.43 6.861 1.267 8.291 0.82 1.444 1.701 1.706 3.493 1.828 1.792 0.105 6.303 0.166 10.216 0.166 3.905 0 8.413-0.061 10.209-0.164 1.795-0.123 2.676-0.384 3.488-1.829 0.845-1.427 1.271-3.932 1.271-8.289 0 0 0-0.005 0-0.010 0 0 0-0.003 0-0.005-0.001-4.378-0.429-6.862-1.275-8.305zM12.257 21.615v-11.229l9.358 5.615-9.358 5.614z"></path>
		</symbol>
	</defs>
</svg>
